<?xml version="1.0" encoding="UTF-8"?>
<svg id="Capa_1" data-name="Capa 1" xmlns="http://www.w3.org/2000/svg" viewBox="0 0 1019.02 378.27">
  <g id="pMPmJm.tif">
    <g>
      <g>
        <path d="M442.18,345.45c.43,.07,2.77,1.21,2.86,1.83-1.43,4.26-4.35,27.16-6.68,28.8-2.85,2-9.01,.55-7.87-3.95l-1.66-.02c-37.7,23.07-49.5-25.6-23.16-46.47,13.46-10.66,40.15-10.9,41.44,10.21-.77,2.48-8.33,2.38-10.34,1.68-2.33-.81-1.82-7.89-10.14-8.78-24.93-2.66-34.11,46.08-4.99,38.41,9.66-2.54,15.63-15.25-1.15-11.71,.18-2.67,.35-10,3.89-10,5.18,0,13.1-.74,17.8,0Z"/>
        <path d="M877.42,355.71c-1.81-1.81-15.44-2.07-17.54-.83-6.05,9.79,.67,25.32-16.68,21.68l11.87-55.65c2.62-1.65,25.32-1.42,29.73-.9,18.81,2.23,15.45,21.18,2.93,29.32,7.96,8.23-.96,16.94,1.71,26.16-1.23,1.71-11.17,1.74-12.4,.03-.95-4.74,3.73-16.44,.38-19.8Zm6.68-24.45l-19.61-1.23c-1.36,4.58-3.44,9.51-1.88,14.38,9.69,3.38,27.45,.83,21.49-13.15Z"/>
        <path d="M199.14,356.55c1.91,1.64,1.92-.23,2.17-1.67,1.96-11.41,4.38-22.84,7.38-34,2.38-.93,8.47-2.04,9.99,.05l-11.16,54.58c-1.17,1.7-10.78,1.76-12.29-.05-4.79-9.61-6.81-23.72-11.63-32.84-.67-1.27-.85-3.01-2.82-2.74l-8.47,36.57-10.52-.98,11.71-53.95c3.58-2.11,9.92-3.11,12.81,.6,4.31,5.52,9.35,31.44,12.83,34.43Z"/>
        <path d="M608.5,356.56c2.03,2.16,3.65-5.64,3.92-6.63,2.29-8.45,3.8-18.36,5.15-27.08,1.07-3.23,10.56-4.98,10.96-.17l-11.3,53.73-11.56-.92-12.77-36.71c-2.03-2.16-3.66,5.64-3.92,6.64-2.46,9.41-3.17,20-6.16,29.41-1.34,2.63-9.32,2.44-10.56,.67l10.02-50.11c.98-7.17,9.85-7.06,14.45-3.2l11.76,34.39Z"/>
        <path d="M629.62,376.57l11.03-54.84c2.18-3.55,28.56-1.88,33.46-.17,17.99,6.3,8.29,37.88-2.33,47.66-1.77,1.63-11.06,7.34-12.67,7.34h-29.48Zm34.11-13.71c6.25-6.09,13.6-30.11,1.8-32.73-1.88-.42-13.78-.62-14.62-.08l-7.8,34.77c4.95,3.55,16.09,2.46,20.62-1.95Z"/>
        <path d="M376.62,367.23c-8.82,10.62-32.79,15.72-41.71,4.02-13.78-18.07,3.06-49.84,24.92-52.5,31.33-3.81,32.16,29.96,16.79,48.49Zm-17.59-38.19c-16.67,2.63-22.92,35.24-8.94,38.4,24.56,5.56,35.87-42.66,8.94-38.4Z"/>
        <path d="M267.6,367.23c-11.12,13.17-41.9,16.14-45.98-3.69-4.86-23.59,14.9-49.22,40.08-44.49,22.31,4.19,17,35.04,5.9,48.19Zm-17.59-38.19c-16.23,2.56-23.81,35.02-8.94,38.4,24.54,5.57,35.88-42.66,8.94-38.4Z"/>
        <path d="M74.53,329.89c.24,2.02-4.45,12.23-.56,12.23h23.36c3.49,0-.33,8.28-.56,10h-26.14c-2.43,3.15-4.9,11.42-2.22,14.45h28.37l-1.11,10H53.4l10.51-53.44c.03-1.39,2.45-3.24,3.4-3.24h36.71c2.76,0,1.85,8.6-1.11,10h-28.37Z"/>
        <path d="M767.27,319.04c12.66-2.01,26.58,1.48,25.39,16.48l-1.35,.87c-10.76,2.69-8.49-2.64-12.63-5.95-9.21-7.36-25.89,4.13-15.48,9.91,9.12,5.07,27.69,1.71,26.53,17.71-1.71,23.5-45.43,26.88-46.67,6.8-.1-1.66-.38-4.58,1.07-5.6,1.29-.9,7.66-.89,9.02,.02,2.27,1.53,.38,7.54,7.13,8.44,4.95,.66,13.52,.87,16.23-3.89,7.76-13.62-24.71-7.55-27.62-20.29-2.63-11.53,7.33-22.75,18.38-24.51Z"/>
        <path d="M702.17,365.22c26.88,13.14,21.48-28.77,28.78-43.57,5.03-3.41,11.83-3.67,10.96,4.24-.8,7.31-6.49,32.22-9.52,38.33-9.45,19.03-46.93,20.26-43.55-5.73,1.08-8.28,4.59-23.77,6.92-31.98,2.09-7.4,4.93-8.31,12.37-5.58,2.6,3.64-9.52,36.98-5.95,44.3Z"/>
        <path d="M970.02,376.57h-12.23s-1.13-11.1-1.13-11.1c-4.8,.81-18.49-1.58-21.79,1-1.84,1.44-3.13,8.16-6.01,9.56s-7.82,.15-11.12,.54c-.71-.64,4.68-10.13,5.54-11.68,6.75-12.07,14.71-27.77,22.25-38.9,4.52-6.68,12-9.93,17.26-2.76l7.24,53.34Zm-16.7-41.11c-2.51-.58-1.81,.35-2.55,1.38-1,1.39-8.11,14-8.37,14.96-1.51,5.7,9.99,3.77,13.06,2.44l-2.14-18.79Z"/>
        <path d="M520.61,376.57h-12.23s-1.13-11.1-1.13-11.1c-5.04,.84-18.11-1.63-21.77,1.02-2.38,1.72-3.3,8.22-6.03,9.54-2.97,1.43-7.82,.15-11.12,.54l27.79-50.58c2.27-6.95,14.2-9.25,17.26-2.76l7.24,53.34Zm-16.7-41.11c-2.51-.58-1.81,.35-2.55,1.38-1,1.39-8.11,14-8.37,14.96-1.51,5.7,9.99,3.77,13.06,2.44l-2.14-18.79Z"/>
        <path d="M156.47,323.59c2.37,2.28,7.33,12.21,3.78,14.7-12.72,4.23-9.69-4.6-14.59-7.79-21.1-13.7-39.35,41.44-11.68,37.09,8.25-1.3,9.89-9.68,13.64-10.8,11.82-3.53,7.77,5.41,3.12,10.89-8.5,10.04-27.05,14.69-37.3,5.01-12.77-12.06-2.77-40.61,10.77-49.3,8.51-5.46,24.51-7.27,32.26,.2Z"/>
        <path d="M38.93,329.89l-9.46,44.45c-1.77,3.62-8.44,1.9-11.68,2.22l8.61-45.06c-.54-3.06-13.38-1.05-16.39-1.62-.24-2.1,1.87-10,3.89-10H55.06c2.59,2.22,2.59,7.78,0,10h-16.13Z"/>
        <path d="M828.74,329.89l-9.88,46.04-11.25,.64,8.76-44.92c-.87-3.71-12.37-.36-15.48-2.27-2.43-1.47,1.94-9.49,2.83-9.49h41.16c2.59,2.22,2.59,7.78,0,10h-16.13Z"/>
        <path d="M319.26,376.57h-38.93c1.44-6.6,9.46-54.13,11.86-55.66s10.8-1.87,11.14,1.74l-8.47,36.79,1.59,7.13h23.36c3.49,0-.33,8.28-.56,10Z"/>
        <path d="M979.47,376.57l-1.25-2.3c3.02-6.85,9.17-50.84,12.45-53.19,2.06-1.48,9.57-2.31,10.41,.62l-8.8,43.11c.05,.61,2.6,1.76,2.77,1.76h23.92l-1.11,10h-38.38Z"/>
        <path d="M563.64,320.1c2.16-.66,8.35-.93,9.16,1.6l-11.56,53.78c-9.99,2.38-12.09,3.17-10.29-6.96,2.3-12.96,5.63-30.66,9.09-43.14,.57-2.04,1.36-4.6,3.6-5.28Z"/>
        <path d="M472.74,321.05l-11.58,54.47c-1.06,1.56-11.73,2.41-11.53-1.46l10.3-49.77c2-6.04,7.88-4.88,12.8-3.23Z"/>
        <path d="M912.94,320.1c2.11-.64,8.45-.89,9.18,1.58l-11.56,53.82c-1.13,1.62-11.68,2.42-11.51-1.44,2.42-9.12,3.59-18.57,5.64-27.76,1.47-6.61,2.98-15.66,4.89-21.78,.56-1.78,1.39-3.81,3.36-4.41Z"/>
        <path d="M483.89,303.22c.73,2.6-.68,1.88-1.42,2.53-4.92,4.38-10.56,10.1-17.48,8.57-.75-.63,7.18-10.27,7.77-10.56,2.92-1.44,7.85-.14,11.13-.54Z"/>
      </g>
      <g>
        <path d="M535.07,7.59l-24.46,118.92c2.14-.34,1.77-2.4,2.33-3.78,18.2-44.74,33.07-75.84,76.3-101.59,59.28-35.31,162.63-31.41,177.1,50.47,.56,3.17-1.13,7.06,1.78,9.31,16.54-24.51,35.98-45.75,62.1-60.18,75.42-41.67,187.36-23.09,188.78,79.6,.87,62.51-28.55,134.57-82,169.34-52.65,34.25-144.95,40.78-182.58-18.35-7.98-12.54-11.4-26.2-15.24-40.36l-13.43,21.03c-40.91,68.41-176.42,95.25-214.8,12.53-2.77-5.98-9.25-24.92-9.25-30.77v-41.68l-27.25,115.58h-57.29l25.64-122.78c.05-.92-1.12-2.81-1.72-2.81h-104.57c-.24,0-2.22,1.08-2.49,1.42l-25.88,124.16h-57.29L309.8,7.59h55.62c2.44,1.7,.76,6.27,.25,9.15-5.09,28.95-15.33,59.65-19.46,88.36-.44,3.07-.27,6.12-.26,9.19h106.23c2,0,4.19-9.68,4.73-11.94,7.06-29.52,11.88-59.79,18.35-89.47,.43-1.95,.9-3.9,2.5-5.28h57.29Zm352.36,42.51c-89.61,9.9-137.61,206.57-16.98,195.31,89.23-8.33,137.19-208.59,16.98-195.31Zm-178.82,48.62c-1.89-35.27-23.33-49.51-57.33-47.84-92,4.52-137.67,217.19-18.03,192.04,26.61-5.6,44.38-26.73,55.32-50.31,5.23-2.64,37.17,.71,46.24-.48,8.17-1.07,4.41-15.34,4.97-21.71,2.08-23.47,10.24-47.31,18.72-69.14,1.03-1.36-2.42-2.56-2.61-2.56h-47.28Z"/>
        <path d="M129.59,7.59l130.48,140.76c.22,2.34-11.12,14.24-13.66,17.07-37.94,42.29-78.38,82.54-116.82,124.46H0L128.78,149.11,0,7.59H129.59Zm-13.35,31.12h-45.05l99.86,110.41-99.86,109.65h45.05c29.01-31.35,59.28-61.64,87.9-93.34,2.53-2.8,13.88-14.74,13.66-17.07L116.25,38.71Z"/>
      </g>
    </g>
  </g>
</svg>