<?xml version="1.0" encoding="utf-8"?>
<!-- Generator: Adobe Illustrator 27.0.0, SVG Export Plug-In . SVG Version: 6.00 Build 0)  -->
<svg version="1.1" id="Capa_1" xmlns="http://www.w3.org/2000/svg" xmlns:xlink="http://www.w3.org/1999/xlink" x="0px" y="0px"
	 viewBox="0 0 1269.6 471.5" style="enable-background:new 0 0 1269.6 471.5;" xml:space="preserve">
<style type="text/css">
	.st0{fill:#FFFFFF;}
	.st1{fill:url(#SVGID_1_);}
</style>
<path class="st0" d="M1260.6,78c-16.3-42.6-48.6-65.8-92.3-74.7c-16.6-3.3-33.4-3.8-50.3-2.6c-33.8,2.4-64.9,12.7-93.5,30.6
	c-26,16.2-47,37.6-63.6,63.3c-1.4,2.1-3.1,4-4.7,6.1c-0.4-2.6-0.8-5.2-1.2-7.9c-2.5-17.7-8.6-33.9-19.2-48.2
	c-12-16.3-28.2-27.3-46.8-34.5c-27.1-10.6-55.2-11.6-83.7-8.3c-30.1,3.4-57.3,14.5-82.2,31.6C693.4,53.5,670.9,80,655,112.2
	c-8,16.2-14.5,32.9-19.5,50.2c-0.3,1.1-0.8,2-1.2,3c0.1-1,0-2,0.2-3c5.8-27.1,11.7-54.3,17.5-81.4c4.8-22.1,9.5-44.2,14.2-66.3
	c1.1-5.2,0.8-5.7-4.2-5.7c-21.3,0-42.7,0-64-0.1c-3.4,0-5,1.1-5.7,4.6c-3,15.2-6.3,30.3-9.5,45.4c-5.5,25.8-11.1,51.7-16.7,77.5
	c-1.1,5.3-1.1,5.3-6.3,5.3c-20.7,0-41.3,0-62,0s-42,0-63,0c-4.5,0-4.6-0.1-3.7-4.5c1.2-6.1,2.4-12.1,3.7-18.1
	c7.5-35.1,15-70.2,22.5-105.3c1-4.6,0.8-4.9-3.9-4.9c-21.5,0-43,0-64.5-0.1c-3.3,0-4.7,1.1-5.4,4.3c-3.2,15.3-6.6,30.6-9.9,45.9
	c-9.9,46.4-19.6,92.8-29.5,139.2c-11,51.8-22.1,103.5-33.2,155.3c-1.2,5.5-0.9,5.8,4.5,5.8c21,0,42,0,63,0c5.1,0,5.2,0,6.3-5
	c2.8-12.7,5.5-25.4,8.2-38c7.6-36.1,15.1-72.3,22.7-108.4c1-4.9,1.1-5,6.2-5c11.5,0,23,0,34.5,0c30,0,60,0,90,0
	c5.4,0,5.4,0.1,4.3,5.3c-2.8,13.7-5.6,27.4-8.5,41c-7.4,35-14.9,69.9-22.3,104.9c-1,4.9-0.8,5.2,4.1,5.2c21.3,0,42.7,0,64,0
	c4.7,0,5.1-0.4,6-4.8c6-28.5,12.1-56.9,18.1-85.4c3.9-18.4,7.9-36.7,11.8-55.1c0.2-0.8,0.5-1.5,0.7-2.2c0.1,0.8,0.3,1.6,0.2,2.5
	c-0.4,6.1-0.8,12.3-1.2,18.4c-1,17.7,0.4,35.3,5.2,52.4c7,25,20.1,45.8,41.6,61c20.3,14.4,43.3,20.3,67.5,21.9
	c20.8,1.4,41.5-0.4,61.8-5.7c31.4-8.2,58.4-24.1,81.5-46.5c15-14.6,26.9-31.8,36.9-50.2c0.6-1.1,1.4-2.2,2.2-3.2
	c0.5,1.4,1,2.7,1.3,4c1.4,5.8,2.4,11.7,4.1,17.5c6.6,22.8,19.3,41.5,37.8,56.3c22.6,18,49.1,25.7,77.3,27.8
	c21.6,1.6,43.1-0.4,64.4-5.7c34.4-8.6,64.4-25.1,90.2-49.2c21.4-20,36.8-44.2,48.3-70.9c14.3-33.3,24-67.8,25-104.3
	C1269.2,117.6,1268,97.3,1260.6,78L1260.6,78z M942.8,129.2C932,154.1,925,180,921.6,206.9c-1.1,8.7-1.4,17.6-1.9,26.3
	c-0.3,5-0.2,5.1-5,5.1c-9,0.1-18,0-27,0c-8.8,0-17.7,0.1-26.5-0.1c-3.3-0.1-5,1.2-6.4,4.2c-7.5,17-17.8,32-32.7,43.4
	c-12.2,9.4-25.9,14.8-41,17c-11.9,1.8-23.9,2-35.7-1.1c-19.2-5-32.6-16.9-39.5-35.6c-6.2-16.9-6.9-34.4-5.4-52.2
	c1.7-19,5.4-37.5,11.5-55.5c8.9-26.4,22.3-50.2,42.6-69.6c14.7-14,32.1-22.2,52.5-24c13.3-1.2,26.3-0.3,39,3.8
	c15.3,5,26.3,14.9,30.7,30.8c1.8,6.5,2.8,13.3,3.7,20.1c0.7,4.8,0.3,4.9,5.3,4.9c18,0,36,0,54,0
	C944.8,124.6,944.8,124.7,942.8,129.2L942.8,129.2z M1192.9,144.8c-0.6,35.5-9,68.9-26.9,99.6c-12.6,21.5-29,39.4-51.5,50.9
	c-16.7,8.5-34.6,11.9-53.2,10.4c-18.1-1.4-34.5-7.5-46.9-21.6c-11-12.4-16.9-27-18.4-43.4c-3.6-38.6,4.9-74.9,22.1-109.2
	c11-21.9,26.5-40.3,47.3-53.8c14.8-9.6,31.2-13.9,48.7-14.5c11.2-0.4,22.2,0.2,33.1,3.6c18.7,6,31.3,18.5,38.8,36.3
	C1191.6,116.5,1193.3,130.5,1192.9,144.8L1192.9,144.8z"/>
<linearGradient id="SVGID_1_" gradientUnits="userSpaceOnUse" x1="162.6825" y1="459.36" x2="162.6825" y2="117.43" gradientTransform="matrix(1 0 0 -1 0 474)">
	<stop  offset="0" style="stop-color:#156DCC"/>
	<stop  offset="1" style="stop-color:#3BD9DC"/>
</linearGradient>
<path class="st1" d="M81.6,10.1c25.2,0,50.3,0.1,75.5-0.1c3.8,0,6.5,0.9,9.2,3.8c22,23.9,44.2,47.6,66.3,71.3
	c20.2,21.7,40.5,43.3,60.7,65c9.4,10.1,19,20.1,28.2,30.4c5.1,5.8,5.2,4.3,0.1,9.9c-10.9,11.9-22,23.7-33,35.4
	c-21.6,23.1-43.3,46.2-64.9,69.2c-19.7,21-39.4,42-59,63.2c-2.4,2.6-5.1,2.8-8.1,2.8c-36.8,0-73.7,0-110.5,0c-13.8,0-27.7,0-41.5,0
	c-1.4,0-2.9-0.3-4.3-0.5c0.8-1.2,1.5-2.5,2.4-3.5c19.7-21.2,39.5-42.4,59.3-63.6c26.2-28.2,52.4-56.4,78.6-84.6
	c6-6.5,12-13,17.9-19.5c3.8-4.1,3.7-4.1,0.1-8c-4.4-4.7-8.9-9.5-13.3-14.2c-23.9-25.6-47.8-51.1-71.7-76.7
	C52,67.6,30.5,44.6,8.9,21.6c-2.7-2.9-5.4-5.9-8-8.9c-1.6-1.8-1-2.6,1.2-2.6c1.2,0,2.3,0,3.5,0C31,10.1,56.3,10.1,81.6,10.1
	L81.6,10.1z M117.1,322.3c8.2,0,16.3-0.1,24.5,0.1c3.1,0.1,5.4-0.9,7.4-3.2c4.7-5.4,9.6-10.6,14.5-15.9
	c12.1-12.9,24.2-25.7,36.2-38.6c23.5-25.3,46.9-50.6,70.3-75.9c3.1-3.4,3.2-3.4,0-6.8c-22.4-24-44.8-48-67.1-72
	c-18.3-19.6-36.7-39.2-54.9-58.8c-1.7-1.8-3.5-2.8-6.1-2.7c-16.3,0.1-32.7,0-49,0.1c-1.1,0-2.2,0.5-3.2,0.8c0.4,1,0.7,2.2,1.4,3
	c4.1,4.4,8.2,8.7,12.3,13.1c19.7,21.2,39.4,42.5,59.1,63.8c16.4,17.7,32.9,35.4,49.5,53c2.6,2.7,2.5,4.3,0,6.9
	c-20.6,22-41.1,44.1-61.7,66.1c-19.9,21.3-39.8,42.6-59.7,63.9c-0.7,0.7-1.1,1.6-1.6,2.4c1,0.3,2.1,0.9,3.1,0.9
	C100.4,322.3,108.7,322.3,117.1,322.3L117.1,322.3z"/>
<path class="st0" d="M540,430.1c3.7,0,7.3-0.1,11,0c3.6,0.1,4.4,0.9,3.7,4.1c-2.2,10.6-4.5,21.1-6.8,31.6c-0.7,3.1-2.7,3.7-7.8,3.3
	c-2.5-0.2-3.6-1.3-3.4-3.8c0.2-3.1-0.5-3.5-3-1.4c-8.3,6.9-18,8.3-28.3,6c-9.7-2.2-16.7-9.6-17.6-19.4c-1.9-19,3.5-35.4,19.6-46.8
	c11.3-8.1,24-10.2,37.4-4.8c7.4,3,11.8,8.4,12.8,16.5c0.5,4.3,0,5.1-4.2,5.2c-1.7,0.1-3.3-0.1-5,0c-3.8,0.4-6.4-0.1-7.8-4.6
	c-1.4-4.5-5.8-6.3-10.4-6.5c-7.5-0.4-13.7,2.6-18.4,8.3c-7.2,8.6-9,18.8-7.5,29.6c0.6,4.7,3.5,7.8,8.1,9.2
	c9.4,2.9,19.8-1.3,24.4-9.9c1.4-2.6,0.4-3.2-2.1-3.2c-2.8,0-5.7,0-8.5,0c-2.5,0-3.5-0.9-3-3.7c1.6-9.6,1.5-9.6,11-9.6
	C536,430.1,538,430.1,540,430.1L540,430.1L540,430.1z"/>
<path class="st0" d="M224.6,397.9c0.5,0,1,0,1.5,0c6.1,0,6.1,0,8.1,5.7c4.4,12.4,8.9,24.7,13.4,37.1c0.4,1.1,1,2,1.5,3
	c0.5-1.2,1.1-2.3,1.4-3.5c2.5-11.5,4.9-23.1,7.4-34.7c0.3-1.6,0.4-3.4,1.1-4.8c0.6-1.1,1.9-2.6,2.9-2.6c3.6-0.3,8.2-1.3,10.7,0.4
	c2.9,2,0,6.3-0.6,9.5c-3.8,18.8-7.8,37.5-11.8,56.1c-1,4.7-1.2,4.9-5.9,4.9c-13,0-10.3,1.2-14.3-9.8c-4.1-11.4-8.3-22.9-12.4-34.3
	c-0.3-0.9-0.9-1.7-1.4-2.5c-0.4,0.9-1,1.7-1.2,2.6c-2.9,13-5.8,25.9-8.4,39c-0.7,3.6-2.1,5.1-5.9,5c-11.8-0.1-10,0.3-7.9-9.6
	c3.7-17.9,7.6-35.8,11.5-53.7C216.5,396.7,214.7,398.1,224.6,397.9L224.6,397.9z"/>
<path class="st0" d="M734.5,397.9c9.5,0.1,7.5-0.8,10.7,7.6c4.3,11.7,8.5,23.5,12.8,35.2c0.4,1.1,1,2.1,1.5,3.1c0.4-1,1-2,1.2-3
	c2.7-12.7,5.4-25.3,8.1-38c1-4.8,1.1-4.8,5.8-4.9c12.4-0.1,9.9-0.4,7.8,9.7c-3.8,18.4-7.6,36.8-11.5,55.2c-1.3,6.3-1.4,6.4-7.8,6.3
	c-10.4-0.1-8.9,1.2-12.5-8.8c-4.4-12.2-8.8-24.4-13.2-36.6c-0.2-0.6-0.6-1.1-0.9-1.7c-0.3,0.7-0.6,1.3-0.8,2
	c-2.9,13.1-5.8,26.2-8.7,39.4c-1.3,5.8-1.2,5.8-7.1,5.8c-10.6,0.1-8.8-0.4-7-8.6c4-19,8.2-38,12.4-57c1.2-5.6,1.3-5.6,7.1-5.6
	C733.2,397.9,733.8,397.9,734.5,397.9L734.5,397.9z"/>
<path class="st0" d="M1078.7,441.7c-10.3,0-8.5-1.4-10.6,8.6c-1,4.7-2.1,9.4-2.9,14.2c-0.5,3.1-1.9,4.5-5.2,4.7
	c-11.4,0.6-11.5,0.7-9.2-10.4c3.9-18.5,7.8-37.1,11.7-55.6c1.1-5.2,1.2-5.2,6.5-5.2c10,0,20,0,30,0c0.7,0,1.3,0,2,0
	c16.6,1.3,19.8,12.1,15.9,24.2c-1.6,4.9-4.9,8.7-9.3,11.3c-1.9,1.1-2.4,1.9-0.5,3.6c2.6,2.3,3,5.5,2.6,8.7c-0.5,4-1.4,7.9-1.8,11.8
	c-0.3,2.8-0.4,5.6,0.1,8.3c0.5,2.5-0.6,3-2.5,3.1c-3.5,0.1-7,0-10.5,0.1c-3.1,0-4.1-1.7-3.7-4.5c0.6-4.3,1.2-8.5,2-12.8
	c1.4-7.5,0.1-9.2-7.4-10.1C1083.4,441.5,1081,441.7,1078.7,441.7L1078.7,441.7z M1082.9,429c2.2,0,4.3,0.2,6.5,0
	c2.3-0.3,4.6-0.6,6.8-1.5c4.4-1.8,6.6-6.8,5.5-11.6c-0.7-3.1-3.2-4.5-8.4-4.5c-4.5-0.1-9,0-13.4,0c-2,0-3.6,0.3-4.1,2.6
	c-0.9,4.2-1.8,8.4-2.7,12.6c-0.4,1.8,0.2,2.5,2,2.5C1077.6,428.9,1080.3,429,1082.9,429L1082.9,429z"/>
<path class="st0" d="M801.9,469.2c-4.3,0-8.7,0-13,0c-6,0-6.2-0.3-5-6.4c2-9.6,3.9-19.2,5.9-28.9c2.2-10.4,4.5-20.8,6.8-31.2
	c1-4.7,1.1-4.8,5.9-4.8c8.8,0,17.7-0.1,26.5,0.1c3.1,0.1,6.3,0.6,9.3,1.5c6.9,2.1,11.2,6.8,12.9,13.9c3.9,16.8-5.3,40.8-19.5,50.6
	c-4.9,3.4-10.5,5.1-16.4,5.2C810.8,469.2,806.3,469.2,801.9,469.2L801.9,469.2L801.9,469.2z M811.4,456c10,1.8,15.9-4.7,20.3-13.5
	c3.3-6.7,4.7-13.8,4.1-21.3c-0.5-6.2-3.5-9.4-9.8-9.8c-4-0.3-8,0-12-0.1c-2.6-0.1-3.8,0.9-4.4,3.5c-2.7,12.5-5.5,25-8.2,37.4
	c-0.5,2.4,0.1,3.9,2.9,3.8C806.3,455.9,808.3,456,811.4,456z"/>
<path class="st0" d="M438.7,470.9c-2.5-0.2-5.1-0.2-7.7-0.7c-13.7-2.8-21.6-14-20.1-28.9c0.8-8.3,3.1-16.3,7.2-23.7
	c7.6-13.8,19.8-20.7,34.9-21.5c15-0.8,27.8,7.3,28.9,23.2c0.9,12.7-2.8,24.4-10.1,34.8C463.9,465.6,452.5,470.5,438.7,470.9
	L438.7,470.9z M465.6,426.1c0-1,0-2,0-3c-0.4-8.4-5.9-13.6-14.2-13.4c-5.9,0.1-11.2,2.1-15.1,6.6c-7.1,8-9.7,17.7-9.1,28.2
	c0.4,7,4.8,11.8,10.8,12.6c7.6,1.1,14.2-0.9,19.2-7.1C462.8,443.1,465.5,435.1,465.6,426.1L465.6,426.1z"/>
<path class="st0" d="M301.7,470.8c-1.5-0.2-4.4-0.2-7.1-0.8c-12.4-2.8-19.6-11.8-19.4-25.4c0.1-12.3,3.5-23.6,11.4-33.4
	c9.8-12.2,27.9-17.9,42.2-13.5c10.5,3.2,16.6,10.4,17.2,20.9c0.9,17-3.7,32.3-17.4,43.7C321.1,468.4,312.4,470.8,301.7,470.8
	L301.7,470.8z M329.9,426.4c0-1.2,0.1-2.3,0-3.5c-0.4-7.7-4.1-11.8-11.9-12.9c-7-1-13,1.3-17.5,6.5c-7,8-10.1,17.5-9.3,28.1
	c0.5,5.5,3,10.5,8.9,12.1c6.7,1.8,13.2,1,18.6-4C326.5,445.6,329.8,436.7,329.9,426.4L329.9,426.4z"/>
<path class="st0" d="M949,471.5c-4.8-1.1-9.9-1.6-14.5-3.4c-8.8-3.4-10.9-10.7-9.8-19.1c0.1-1,1.7-2.3,2.9-2.6c1.9-0.5,4-0.2,6-0.2
	c5.2,0,5.3,0,6.4,5.1c0.7,3.1,2.7,5,5.7,5.7c5.3,1.3,10.7,1.1,15.8-0.7c2.1-0.8,4.3-2.7,5.5-4.6c2.1-3.3,0.9-6.6-2.7-8.2
	c-3.2-1.3-6.7-2-10-3c-5.1-1.6-10.3-2.9-15.1-5c-6.7-3-8.8-7.9-7.6-15.1c2.1-12.2,10.7-21,23-23.3c5.8-1.1,11.5-1.3,17.3-0.1
	c9.4,1.9,15.4,8.2,15.8,17.3c0.2,4.4-0.6,5.3-5,5.4c-1.8,0-3.7-0.1-5.5,0c-3.2,0.3-5.4-0.4-5.7-4.3c-0.1-1.4-1.5-3-2.8-3.9
	c-5-3.5-15.4-2.4-19.6,2c-3.6,3.7-2.9,8,2,9.8c4.4,1.6,9,2.5,13.4,3.8c4.1,1.3,8.3,2.4,12.2,4.3c6,3,8.1,7.9,7,14.6
	c-2.1,13.5-12.5,22.9-27.1,24.5c-2.5,0.3-5,0.3-7.5,0.5C949.1,471.1,949,471.3,949,471.5L949,471.5z"/>
<path class="st0" d="M92.8,469.2c-7.3,0-14.7,0.1-22,0c-4.6,0-5.1-0.5-4.1-4.9c4.4-20.8,8.8-41.7,13.2-62.5c0.6-2.7,1.9-3.9,4.8-3.9
	c15,0.1,30,0.1,45,0c2.9,0,4,1,3.3,3.8c-2.8,11.5-0.8,9.6-11.5,9.7c-8,0.1-16,0.1-24,0c-2.8-0.1-4.1,0.9-4.7,3.7
	c-2.5,11.6-3,9.9,7.6,10c6.5,0.1,13,0,19.5,0c4.3,0.1,4.8,0.6,3.9,4.7c-2.1,10.2-0.9,8.5-10.2,8.7c-7.3,0.1-14.7,0.1-22,0
	c-2.9-0.1-4.3,0.9-4.6,3.8c-0.4,3.1-1.3,6.2-1.8,9.3c-0.6,3.5-0.1,4.2,3.5,4.2c9.7,0.1,19.3,0,29,0c5.1,0,5.3,0.3,4.3,5.1
	c-1.9,8.8-0.2,8.3-10.1,8.3C105.5,469.2,99.1,469.2,92.8,469.2L92.8,469.2z"/>
<path class="st0" d="M881.1,471.3c-3.9-0.7-8-1-11.7-2.1c-8.5-2.5-13-9-12.1-18.3c0.7-7.4,2.3-14.8,3.8-22.1
	c1.8-8.8,3.9-17.5,5.7-26.3c0.7-3.2,2-5.1,5.6-4.6c2.3,0.3,4.7,0,7,0.1c4.3,0.1,4.6,0.2,3.7,4.6c-2.7,13-5.7,26-8.4,39
	c-0.7,3.5-2.3,7.2-0.3,10.7c1,1.7,2.6,3.6,4.4,4.4c8.5,3.4,17.9-1.2,20-10.1c3.5-14.5,6.6-29.1,9.9-43.7c0.7-3.2,2.7-4.8,5.8-4.9
	c0.7,0,1.3,0,2,0c9.1,0,9.2,0,7.2,9.1c-2.5,12-5,24.1-7.7,36.1C912,461.7,900.1,471.1,881.1,471.3L881.1,471.3z"/>
<path class="st0" d="M1188.5,397.9c12.3,0.1,9.8-1.1,11.4,9.2c2.9,17.9,5.2,35.9,7.8,53.8c1.2,8.2,1.2,8.2-7.2,8.2
	c-0.2,0-0.3,0-0.5,0c-5.8,0-8.9-2.8-9.3-8.5c-0.4-5.8-0.7-6-6.6-6c-4.8,0-9.7,0.2-14.5-0.1c-3.6-0.2-5.6,1.1-6.9,4.3
	c-0.9,2.1-2.3,4.1-3.2,6.2c-1.3,3.3-3.7,4.4-7.1,4.2c-2.5-0.2-5,0.1-7.5-0.1c-3.4-0.2-3.8-0.9-2.2-4c3.7-6.7,7.5-13.4,11.3-20
	c7.6-13.3,15.4-26.5,22.7-40C1179.8,399.8,1183,396.1,1188.5,397.9L1188.5,397.9z M1180.4,441.2c1.3,0,2.7-0.1,4,0
	c2.8,0.2,3.9-0.7,3.6-3.7c-0.7-5.5-1.1-10.9-1.7-16.4c-0.1-1-0.6-1.9-0.9-2.8c-0.7,0.8-1.6,1.5-2.1,2.5c-2.4,4.4-4.7,8.8-7.1,13.2
	C1173.7,438.8,1175.1,441.2,1180.4,441.2L1180.4,441.2z"/>
<path class="st0" d="M630.8,397.9c8.5,0,8.8,0,10,7.9c2.9,19.4,5.5,38.8,8.1,58.2c0.7,5,0.5,5-4.5,5.1c-2,0-4,0-6,0
	c-5.6,0-6.1-0.5-6.7-6.2c-0.6-5.6-3.6-8.4-9.1-8.4c-4,0-8,0.2-12-0.1c-3.2-0.2-5.3,0.8-6.7,3.9c-1.3,2.9-2.9,5.7-4.7,8.2
	c-0.8,1.2-2.5,2.3-3.9,2.4c-3.1,0.4-6.3,0.3-9.5,0.1c-3.1-0.2-3.6-1-2.2-3.7c3-5.6,6.1-11.1,9.2-16.6c8.6-15,17.4-30,25.7-45.1
	c2.4-4.4,5.1-6.7,10.1-5.8C629.4,398,630.1,397.9,630.8,397.9L630.8,397.9z M621.5,441.2c1.8,0,3.7,0.2,5.5-0.1
	c0.8-0.1,1.9-1.4,1.9-2.1c-0.5-6.6-1.3-13.2-2-19.7c0-0.5-0.2-1-0.3-1.4c-0.5,0.4-1,0.7-1.3,1.2c-2.7,4.9-5.4,9.9-8.1,14.8
	C614.4,438.8,615.9,441.2,621.5,441.2L621.5,441.2z"/>
<path class="st0" d="M159.8,470.9c-16.4-0.1-26.3-9.8-25.8-26.3c0.4-14.8,4.9-28.4,16.4-38.4c10.7-9.4,23.3-12.8,37.1-8
	c10.7,3.7,13.5,11.1,14.4,19.6c0.3,2.8-0.8,4.5-3.9,4.5c-1.8,0-3.7,0-5.5,0c-5.6,0-5.7,0-7.5-5.5c-1.1-3.2-3.2-5.2-6.2-5.9
	c-6.3-1.5-12.6-1.1-17.3,3.8c-8.9,9.3-12.6,20.6-10.3,33.4c1.1,6.1,5.2,9.1,11.4,9.2c7.3,0.1,13.1-2.8,16.5-9.3
	c1.7-3.2,3.9-4.2,7.2-3.9c2.1,0.2,4.3,0.1,6.5,0c2.7,0,3.8,1,2.5,3.7c-6,12.5-15.3,20.8-29.5,22.7
	C163.8,470.8,161.7,470.8,159.8,470.9L159.8,470.9z"/>
<path class="st0" d="M43.8,397.9c8.3,0,16.6,0,25,0c4.1,0,4.2,0.1,3.4,4.3c-2.1,10.4-0.7,9-10.8,9.2c-3.9,0.1-8.9-0.8-11.5,1.2
	c-2.4,1.8-2.2,7-3.1,10.7c-3,13.6-5.9,27.3-8.9,40.9c-1,4.7-1.2,4.9-5.9,4.9c-13.1,0.1-11,0.4-8.8-10.5c2.9-14,6-28,9-41.9
	c1.1-5.2,1.1-5.2-4.3-5.2c-3.8,0-7.7,0.1-11.5,0c-3.7-0.1-4.1-0.7-3.5-4.2c1-6.2,4.6-9.2,10.8-9.2C30.5,397.9,37.2,397.9,43.8,397.9
	L43.8,397.9z"/>
<path class="st0" d="M1026.9,397.9c8.3,0,16.7,0.1,25,0c3.2-0.1,4.1,1,3.4,4.1c-2.6,10.9-0.6,9.3-11.2,9.4c-2.3,0-4.7,0-7,0
	c-4.8,0.1-4.9,0.1-5.9,4.8c-3.3,15.5-6.6,30.9-10,46.4c-1.4,6.5-1.4,6.6-8.1,6.6c-10,0-9.4,0.7-7.3-8.8c3.2-14.6,6.3-29.2,9.5-43.9
	c1.1-5,1.1-5.1-3.9-5.1c-4,0-8,0.1-12-0.1c-3.5-0.1-4-0.9-3.4-4.4c1-6,4.7-9.1,10.9-9.1C1013.6,397.9,1020.2,397.9,1026.9,397.9
	L1026.9,397.9z"/>
<path class="st0" d="M1241.9,469.1c-6.8,0-13.7,0.1-20.5,0c-4,0-4.5-0.6-3.7-4.4c4.3-20.8,8.8-41.7,13.1-62.5c0.6-3,2-4.4,5.4-4.4
	c11.7-0.1,11.7-0.2,9.2,11.2c-3,13.6-5.9,27.3-8.9,41c-1.2,5.4-0.8,5.8,4.5,5.8c8.2,0,16.3,0,24.5,0c4.4,0,4.4,0.2,3.7,4.7
	c-1,5.8-4.4,8.7-10.3,8.7C1253.2,469.1,1247.6,469.1,1241.9,469.1L1241.9,469.1L1241.9,469.1z"/>
<path class="st0" d="M373,469.1c-6.8,0-13.6,0.1-20.5,0c-4.1,0-4.5-0.4-3.6-4.4c4.5-21.1,9.1-42.2,13.6-63.4c0.6-2.7,2-3.6,4.5-3.5
	c2.5,0.1,5,0.2,7.5,0c3.2-0.2,4.2,1.1,3.6,4.1c-1.5,7.3-3,14.7-4.6,22c-1.9,9.1-3.9,18.2-5.9,27.3c-0.9,4.2-0.8,4.5,3.8,4.5
	c8.3,0,16.6,0,25,0c4.9,0,5,0.1,3.9,4.8c-2.1,9.2,0,8.5-10.3,8.6C384.4,469.2,378.7,469.2,373,469.1L373,469.1L373,469.1z"/>
<path class="st0" d="M1141,397.9c7.2,0.1,8.3-1.6,6.3,7.4c-4.3,19.5-8.2,39.1-12.3,58.6c-1.1,5.1-1.2,5.2-6.6,5.2
	c-13.2,0.1-10.4,0.1-8.3-10.4c3.6-17.8,7.6-35.4,11.4-53.1C1133.3,396.5,1132.9,398.1,1141,397.9L1141,397.9z"/>
<path class="st0" d="M581.7,397.9c7.9,0,8,0,6.4,7.5c-4.1,19.5-8.2,39-12.4,58.5c-1.1,5-1.3,5.2-6.7,5.2c-12.7,0-10.3,0.8-8.2-9.9
	c3.5-17.8,7.3-35.5,11.2-53.2C574,396.8,572.9,398,581.7,397.9L581.7,397.9z"/>
<path class="st0" d="M706.6,397.9c5.3,0,7.5,2.5,6.4,7.5c-4,19-8.1,38-12.1,57.1c-1.4,6.7-1.4,6.7-8,6.7c-11.4,0-9.3,0-7.4-9
	c3.9-18.7,7.8-37.4,11.8-56.1c1.3-6.2,1.4-6.2,7.8-6.2C705.6,397.9,706.1,397.9,706.6,397.9L706.6,397.9z"/>
<path class="st0" d="M583.1,392.2c-0.8,0-1.7,0.1-2.5,0c-2.8-0.3-3.3-1.3-1.6-3.4c2.8-3.5,5.8-6.8,8.9-10c0.9-1,2.5-1.6,3.9-1.7
	c3.1-0.2,6.3-0.1,9.4,0c0.7,0,1.4,0.5,2.1,0.8c-0.4,0.7-0.6,1.6-1.1,2c-4.3,3.7-8.5,7.4-13,10.8c-1.6,1.2-3.9,1.4-5.9,2.1
	C583.2,392.6,583.2,392.4,583.1,392.2L583.1,392.2z"/>
</svg>
