<?xml version="1.0" encoding="utf-8"?>
<!-- Generator: Adobe Illustrator 27.0.0, SVG Export Plug-In . SVG Version: 6.00 Build 0)  -->
<svg version="1.1" id="layer" xmlns="http://www.w3.org/2000/svg" xmlns:xlink="http://www.w3.org/1999/xlink" x="0px" y="0px"
	 viewBox="0 0 599.8 115.6" style="enable-background:new 0 0 599.8 115.6;" xml:space="preserve">
<style type="text/css">
	.st0{fill:#FFFFFF;}
	.st1{fill:#00AEEF;}
</style>
<g>
	<polyline class="st0" points="168.7,24.7 193.8,24.7 178,88.3 152.9,88.3 	"/>
	<polyline class="st0" points="207.9,24.7 236.6,24.7 253.3,60 253.6,60 262.4,24.7 286.4,24.7 270.5,88.3 243,88.3 225.2,52.7 
		225,52.7 216.1,88.3 192.1,88.3 	"/>
	<polyline class="st0" points="311.4,40.7 288.2,40.7 292.2,24.7 363.8,24.7 359.8,40.7 336.5,40.7 324.7,88.3 299.6,88.3 	"/>
	<polyline class="st0" points="369.6,24.7 437.2,24.7 433.2,40.7 390.7,40.7 388.7,48.8 431.1,48.8 427.3,64.2 384.8,64.2 
		382.8,72.3 425.3,72.3 421.3,88.3 353.7,88.3 	"/>
	<polyline class="st0" points="441.8,24.7 468.4,24.7 475.9,61.5 501.6,24.7 528.6,24.7 482.6,88.3 456,88.3 	"/>
	<path class="st0" d="M544.7,24.7h33.5l14.3,63.6h-27.1l-1.5-7.3h-33.2l-5.2,7.3h-27 M556.8,44h-0.2l-14.9,21.6h19.2L556.8,44z"/>
</g>
<g>
	<path class="st1" d="M102.7,8.1c1.6,6.2-3.7,13-11.8,15.1s-16-1.2-17.6-7.4s3.6-13,11.8-15.1C93.2-1.5,101.1,1.9,102.7,8.1"/>
	<path class="st1" d="M83.1,86c27.2-12.8,42.3-38.8,34.5-61.2H98.4L83.1,86 M77,88.5H56.7l15.9-63.7H10.3
		C0.9,37.2-2.6,51.9,2.1,65.3c8.6,24.3,41.2,35.2,72.9,24c0.6-0.2,1.2-0.4,1.8-0.7L77,88.5z"/>
</g>
<g>
	<path class="st0" d="M431.6,100.5h10.1c4,0,4.8,2.2,4.2,4.5c-0.6,2.2-2.8,4.5-6.5,4.5h-6.7l-1.4,5.5h-3.4L431.6,100.5 M433.3,107.3
		h5.6c2,0,3.1-0.5,3.6-2.2c0.5-1.8-0.8-2.2-2.2-2.2h-5.8L433.3,107.3z"/>
	<path class="st0" d="M451.7,100.5h10.4c4.2,0,5.1,1.7,4.5,4c-0.5,1.9-2,3.1-3.6,3.5l0,0c1.9,0.4,1.9,1.9,1.4,4
		c-0.2,0.7-0.6,2.3-0.1,3.1h-3.7c-0.2-0.4-0.1-1.2,0.1-2.2c0.5-2.1,0.6-3.5-1.9-3.5h-5.9l-1.5,5.8h-3.5L451.7,100.5 M459.4,107
		c1.9,0,3.1-0.5,3.5-2.1c0.4-1.5-0.6-2.1-2.4-2.1h-6l-1.1,4.2H459.4z"/>
	<path class="st0" d="M469.8,107.8c1.1-4.1,4.7-7.7,11.7-7.7s8.7,3.6,7.7,7.7c-1.1,4.1-4.7,7.7-11.7,7.7S468.7,111.9,469.8,107.8
		 M485.5,107.8c0.8-3.2-0.8-5.4-4.7-5.4c-3.9,0-6.6,2.2-7.5,5.4c-0.8,3.2,0.8,5.4,4.7,5.4C481.9,113.2,484.7,111,485.5,107.8"/>
	<path class="st0" d="M495.6,100.5h8.9c6.4,0,7.2,3.3,6.1,7.4c-0.8,3.1-3.5,7.2-9,7.2h-9.7L495.6,100.5 M495.9,112.8h4.8
		c2.5,0,5.3-0.7,6.4-5c1.2-4.7-2.1-5-4-5h-4.7L495.9,112.8z"/>
	<path class="st0" d="M517.2,100.5h3.4l-2.1,8.2c-0.5,2-1.1,4.5,3.4,4.5s5.2-2.4,5.7-4.5l2.1-8.2h3.4l-2.1,8.3
		c-0.6,2.4-1.8,6.7-9.8,6.7c-7.9,0-6.9-4.3-6.3-6.7"/>
	<path class="st0" d="M551.5,105.9c0.2-2.2-1.5-3.5-4.4-3.5c-3.2,0-6,1.9-7,5.7c-0.8,3.1,1,5.2,4.4,5.2c3.6,0,5.3-2.2,6-3.7h3.7
		c-1.2,2.9-4.2,6-10.9,6c-5.9,0-7.8-3.6-6.8-7.7c1.1-4.1,4.7-7.7,11.2-7.7c5.7,0,7.9,2.7,7.5,5.8"/>
	<polyline class="st0" points="564.4,102.8 558.2,102.8 558.8,100.5 574.6,100.5 574,102.8 567.9,102.8 564.7,115.1 561.2,115.1 	
		"/>
	<path class="st0" d="M585.4,100.1c2.5,0,7.5,0.4,6.8,4.6h-3.7c0.2-1.1-0.7-2.3-3.5-2.3c-2.3,0-4,0.6-4.3,2
		c-0.9,3.4,12.2,0.1,10.6,6.4c-1,3.8-5.6,4.7-9.1,4.7c-5.9,0-7.8-2.1-7-5.1h3.7c-0.4,1.9,1.2,2.8,4,2.8c2.1,0,4.2-0.5,4.6-2.1
		c0.9-3.6-12-0.5-10.4-6.4C577.9,101.4,581.4,100.1,585.4,100.1"/>
</g>
<g>
	<path class="st0" d="M587.3,32.6v-6.8h-2.6v-1.2h6.5v1.2h-2.6v6.8H587.3z M592.1,32.6v-8h1.9l2,6.4l1.9-6.4h1.9v8h-1.2v-6.7
		l-2.1,6.7h-1.2l-2.2-6.8v6.8H592.1z"/>
</g>
</svg>
