<?xml version="1.0" encoding="utf-8"?>
<!-- Generator: Adobe Illustrator 19.0.0, SVG Export Plug-In . SVG Version: 6.00 Build 0)  -->
<svg version="1.1" id="layer" xmlns="http://www.w3.org/2000/svg" xmlns:xlink="http://www.w3.org/1999/xlink" x="0px" y="0px"
	 viewBox="-153 -46 652 652" style="enable-background:new -153 -46 652 652;" xml:space="preserve">
<style type="text/css">
	.st0{fill:#00AEEF;}
</style>
<g>
	<polyline points="37.8,241.8 62.9,241.8 47.1,305.4 22,305.4 	"/>
	<polyline points="77,241.8 105.7,241.8 122.4,277.1 122.7,277.1 131.5,241.8 155.5,241.8 139.6,305.4 112.1,305.4 94.3,269.8 
		94.1,269.8 85.2,305.4 61.2,305.4 	"/>
	<polyline points="180.5,257.8 157.3,257.8 161.3,241.8 232.9,241.8 228.9,257.8 205.6,257.8 193.8,305.4 168.7,305.4 	"/>
	<polyline points="238.7,241.8 306.3,241.8 302.3,257.8 259.8,257.8 257.8,265.9 300.2,265.9 296.4,281.3 253.9,281.3 251.9,289.4 
		294.4,289.4 290.4,305.4 222.8,305.4 	"/>
	<polyline points="310.9,241.8 337.5,241.8 345,278.6 370.7,241.8 397.7,241.8 351.7,305.4 325.1,305.4 	"/>
	<path d="M413.8,241.8h33.5l14.3,63.6h-27.1l-1.5-7.3h-33.2l-5.2,7.3h-27 M425.9,261.1h-0.2l-14.9,21.6h19.2L425.9,261.1z"/>
</g>
<g>
	<path class="st0" d="M-28.2,225.2c1.6,6.2-3.7,13-11.8,15.1c-8.1,2.1-16-1.2-17.6-7.4c-1.6-6.2,3.6-13,11.8-15.1
		C-37.7,215.6-29.8,219-28.2,225.2"/>
	<path class="st0" d="M-47.8,303.1c27.2-12.8,42.3-38.8,34.5-61.2h-19.2L-47.8,303.1 M-53.9,305.6h-20.3l15.9-63.7l-62.3,0
		c-9.4,12.4-12.9,27.1-8.2,40.5c8.6,24.3,41.2,35.2,72.9,24c0.6-0.2,1.2-0.4,1.8-0.7L-53.9,305.6z"/>
</g>
<g>
	<path d="M300.7,317.6h10.1c4,0,4.8,2.2,4.2,4.5c-0.6,2.2-2.8,4.5-6.5,4.5h-6.7l-1.4,5.5h-3.4L300.7,317.6 M302.4,324.4h5.6
		c2,0,3.1-0.5,3.6-2.2c0.5-1.8-0.8-2.2-2.2-2.2h-5.8L302.4,324.4z"/>
	<path d="M320.8,317.6h10.4c4.2,0,5.1,1.7,4.5,4c-0.5,1.9-2,3.1-3.6,3.5l0,0c1.9,0.4,1.9,1.9,1.4,4c-0.2,0.7-0.6,2.3-0.1,3.1h-3.7
		c-0.2-0.4-0.1-1.2,0.1-2.2c0.5-2.1,0.6-3.5-1.9-3.5h-5.9l-1.5,5.8H317L320.8,317.6 M328.5,324.1c1.9,0,3.1-0.5,3.5-2.1
		c0.4-1.5-0.6-2.1-2.4-2.1h-6l-1.1,4.2H328.5z"/>
	<path d="M338.9,324.9c1.1-4.1,4.7-7.7,11.7-7.7s8.7,3.6,7.7,7.7c-1.1,4.1-4.7,7.7-11.7,7.7S337.8,329,338.9,324.9 M354.6,324.9
		c0.8-3.2-0.8-5.4-4.7-5.4c-3.9,0-6.6,2.2-7.5,5.4c-0.8,3.2,0.8,5.4,4.7,5.4C351,330.3,353.8,328.1,354.6,324.9"/>
	<path d="M364.7,317.6h8.9c6.4,0,7.2,3.3,6.1,7.4c-0.8,3.1-3.5,7.2-9,7.2h-9.7L364.7,317.6 M365,329.9h4.8c2.5,0,5.3-0.7,6.4-5
		c1.2-4.7-2.1-5-4-5h-4.7L365,329.9z"/>
	<path d="M386.3,317.6h3.4l-2.1,8.2c-0.5,2-1.1,4.5,3.4,4.5c4.5,0,5.2-2.4,5.7-4.5l2.1-8.2h3.4l-2.1,8.3c-0.6,2.4-1.8,6.7-9.8,6.7
		c-7.9,0-6.9-4.3-6.3-6.7"/>
	<path d="M420.6,323c0.2-2.2-1.5-3.5-4.4-3.5c-3.2,0-6,1.9-7,5.7c-0.8,3.1,1,5.2,4.4,5.2c3.6,0,5.3-2.2,6-3.7h3.7
		c-1.2,2.9-4.2,6-10.9,6c-5.9,0-7.8-3.6-6.8-7.7c1.1-4.1,4.7-7.7,11.2-7.7c5.7,0,7.9,2.7,7.5,5.8"/>
	<polyline points="433.5,319.9 427.3,319.9 427.9,317.6 443.7,317.6 443.1,319.9 437,319.9 433.8,332.2 430.3,332.2 	"/>
	<path d="M454.5,317.2c2.5,0,7.5,0.4,6.8,4.6h-3.7c0.2-1.1-0.7-2.3-3.5-2.3c-2.3,0-4,0.6-4.3,2c-0.9,3.4,12.2,0.1,10.6,6.4
		c-1,3.8-5.6,4.7-9.1,4.7c-5.9,0-7.8-2.1-7-5.1h3.7c-0.4,1.9,1.2,2.8,4,2.8c2.1,0,4.2-0.5,4.6-2.1c0.9-3.6-12-0.5-10.4-6.4
		C447,318.5,450.5,317.2,454.5,317.2"/>
</g>
<g>
	<path d="M456.4,249.7v-6.8h-2.6v-1.2h6.5v1.2h-2.6v6.8H456.4z M461.2,249.7v-8h1.9l2,6.4l1.9-6.4h1.9v8h-1.2V243l-2.1,6.7h-1.2
		l-2.2-6.8v6.8H461.2z"/>
</g>
</svg>
