<?xml version="1.0" encoding="utf-8"?>
<!-- Generator: Adobe Illustrator 27.0.0, SVG Export Plug-In . SVG Version: 6.00 Build 0)  -->
<svg version="1.1" id="Capa_1" xmlns="http://www.w3.org/2000/svg" xmlns:xlink="http://www.w3.org/1999/xlink" x="0px" y="0px"
	 viewBox="0 0 755.7 290.7" style="enable-background:new 0 0 755.7 290.7;" xml:space="preserve">
<style type="text/css">
	.st0{fill:#FFFFFF;}
</style>
<path class="st0" d="M755.7,149.8c-0.3,0.7-0.9,1.4-1,2.2c-1.3,8.8-5.1,16.4-11.4,22.7c-8,8-16,16-24,24
	c-26.2,26.2-52.5,52.4-78.7,78.7c-5.8,5.8-12.4,10.1-20.4,11.9c-14.6,3.4-27.7,0-38.9-10c-2.5-2.2-4.8-4.7-7.1-7
	c-32.1-32.1-64.3-64.2-96.4-96.4c-5.9-5.9-10.1-12.7-11.8-20.9c-3-14.3,0-27.1,10.1-37.8c8.3-8.8,17.1-17.2,25.7-25.8
	c25.1-25.2,50.3-50.5,75.3-75.8c7.7-7.8,16.3-13.5,27.5-14.8c0.4-0.1,0.8-0.5,1.2-0.8c3,0,6,0,9,0c0.5,0.3,1.1,0.9,1.6,0.9
	c9.7,1.1,17.6,5.9,24.3,12.6c33.7,33.6,67.4,67.3,101.1,101c5.7,5.7,10.2,12.3,12.2,20.3c0.5,2,1.2,4,1.8,6L755.7,149.8L755.7,149.8
	z M504.9,168.7C504.9,168.7,504.9,168.7,504.9,168.7c-3.7,0.1-7.3-0.2-11,0.1c-3.2,0.2-4.1,2.8-2.2,5.3c0.8,1,1.8,1.9,2.8,2.9
	c30.6,30.6,61.2,61.2,91.9,91.8c0.8,0.8,1.6,1.7,2.5,2.5c6.7,5.8,14.5,8.9,23.3,8.3c8.2-0.6,15.1-4.3,21-10.3
	c30.7-30.8,61.4-61.5,92.2-92.2c0.8-0.8,1.7-1.6,2.4-2.5c1.8-2.4,0.9-4.5-2.1-4.9c-1.5-0.2-3,0.1-4.5-0.1c-5.7-0.8-9.8,1.3-13.9,5.5
	c-16.5,17-33.3,33.5-50.1,50.2c-2.6,2.6-2.3,2.7-5,0.1c-7.8-7.8-15.5-15.6-23.3-23.3c-0.8-0.8-1.7-1.6-2.5-2.5
	c-1.2-1.3-2.3-1-3.4,0.1c-0.9,1-1.9,1.9-2.8,2.8c-7.6,7.5-15.1,15-22.7,22.5c-2.5,2.4-2.2,3-5,0.2c-17.5-17.5-35.1-35.1-52.6-52.6
	c-2.7-2.8-2.7-2.8-0.1-5.5c8-8,16-16,24-24c2.6-2.6,2.7-2.6,5.4,0.1c7.9,7.9,15.8,15.8,23.7,23.6c2.3,2.3,2.4,2.3,4.7,0
	c7.6-7.4,15.2-14.9,22.8-22.4c1-0.9,1.8-2,2.9-2.7c0.5-0.3,1.6-0.4,2.1,0c1,0.6,1.7,1.6,2.5,2.4c7.7,7.6,15.3,15.3,23,22.9
	c3,3,3,2.9,6.1-0.1c14-13.8,28.1-27.4,42-41.3c3.1-3.1,6.5-4.4,10.7-4.4c4.3,0.1,8.7,0.1,13,0c2.1,0,4.7,0.7,5.6-2
	c0.8-2.4-1.4-3.5-2.7-4.9c-30.9-31-62-61.9-92.9-92.9c-12.9-13-32.9-12.7-45.5,0c-30.7,31-61.7,61.7-92.5,92.6
	c-0.7,0.7-1.6,1.3-2,2.2c-0.5,0.9-1.3,2.4-0.9,3.1c0.5,0.9,1.9,1.8,3.1,1.9c2.5,0.3,5-0.1,7.5,0.2c3.8,0.3,6.5-0.9,9.2-3.7
	c16.9-17.3,33.9-34.4,50.9-51.5c3.8-3.8,3.1-3.9,6.8-0.2c7.2,7.2,14.4,14.4,21.6,21.5c3,3,6,3,9,0.1c7.5-7.5,15.1-15.1,22.7-22.5
	c2.2-2.2,2.3-2.2,4.7,0.1c2.9,2.8,5.7,5.6,8.5,8.5c15,14.9,29.9,29.9,44.9,44.8c2.5,2.5,2.5,2.6,0.1,5.1
	c-8.1,8.1-16.3,16.2-24.5,24.3c-2.1,2.1-1.9,2.2-4.2-0.1c-7.9-7.9-15.8-15.8-23.7-23.7c-4.1-4.1-3.5-3.8-7.2-0.1
	c-0.2,0.2-0.5,0.5-0.7,0.7c-7.3,7.3-14.7,14.6-22,21.8c-2.8,2.7-2.8,2.7-5.4,0.2c-0.6-0.6-1.2-1.2-1.8-1.8
	c-7.1-7.1-14.1-14.1-21.2-21.2c-3.9-3.9-3.5-3.3-6.9,0.1c-11.5,11.5-23.1,23.1-34.6,34.6c-2.5,2.5-4.9,4.9-7.4,7.4
	c-2.1,2.1-4.5,3.2-7.6,3.1C510.6,168.6,507.8,168.7,504.9,168.7L504.9,168.7z"/>
<path class="st0" d="M0,78.9C12.1,79,24.3,79.2,36.4,79c3.5,0,6,0.9,8.3,3.4c3.8,3.9,7.8,7.7,12,11.3c2.6,2.3,2.8,2.2,5.4-0.1
	c4.7-4.2,9.5-8.3,14.2-12.6c1.4-1.3,2.9-2,4.9-2c11.5,0.1,23,0,34.5,0.1c3.1,0,3.1,0.1,3.1,3.5c0,10.2,0,20.3,0,30.4
	c0,18.3,0,36.6,0,54.9c0,3.6-0.1,3.6-3.5,3.6c-11.7,0-23.3,0-35,0c-3.2,0-3.2-0.1-3.3-3.4c-0.1-10.8-0.1-21.6-0.2-32.4
	c0-0.8,0.1-1.7,0-2.5c-0.2-1.1-0.6-2.1-0.9-3.1c-0.9,0.6-1.9,1.1-2.7,1.9c-3.5,3.3-6.9,6.7-10.4,10c-2.3,2.2-4.5,2.2-6.7,0.1
	c-3.8-3.7-7.6-7.5-11.4-11.2c-0.3-0.3-1.1-0.7-1.2-0.6c-0.4,0.4-0.8,0.9-0.8,1.5c-0.1,1.1-0.1,2.3-0.1,3.5c0,10,0,20,0,29.9
	c0,4.3-2.2,6.4-6.7,6.4c-10.3,0-20.6,0-31,0c-1.7,0-3.3,0.1-5,0.2L0,78.9L0,78.9z"/>
<path class="st0" d="M210.8,125.6c0-13.3,0-26.6,0-39.9c0-1.3,0-2.7,0.1-4c0.1-1.5,0.9-2.5,2.5-2.5c1,0,2-0.1,3-0.1c21,0,42,0,63,0
	c12.9,0,23.4,7.4,26.7,19.9c2.2,8.2,1.2,16.5-4.6,23.6c-0.5,0.6-1.1,1.2-1.7,1.8c-3.4,3.8-3.5,4.6-0.6,9.1c4.7,7.5,8.6,15.4,10.7,24
	c1,4,1.6,8.1,2.4,12.2c0.3,1.3-0.1,1.9-1.4,1.9c-3,0-6,0-9,0c-9.2,0-18.3-0.1-27.5,0.1c-2.5,0-3.7-0.9-4.1-3.2
	c-1-5.5-2.1-11.1-3.2-16.6c-1-4.7-3.5-8.6-7.3-11.6c-1.4-1.1-3.2-2.6-4.9-1.4c-1.1,0.8-1.7,2.8-1.8,4.3c-0.2,7.1-0.1,14.3-0.2,21.5
	c-0.1,8.1,1.1,6.8-6.8,6.9c-10,0.1-20,0-30,0c-5.7,0-5.3,0.3-5.3-5.5C210.9,152.6,210.9,139.1,210.8,125.6L210.8,125.6z M253.6,107
	C253.6,107,253.6,107,253.6,107c-0.1,1.3-0.1,2.6-0.1,3.9c0,0.3,0,0.7,0,1c0.2,2.8,1.5,3.8,4.2,3c3.4-1,5.7-4.6,5.4-8.4
	c-0.3-3.7-2.9-6.4-6.5-7.1c-1.8-0.3-3,0.3-3.1,2.2C253.5,103.3,253.6,105.2,253.6,107L253.6,107z"/>
<path class="st0" d="M127.2,125.3c0-14.1,0-28.3,0-42.4c0-3.7,0.1-3.8,3.8-3.8c23.6,0,47.3,0,70.9,0c3.7,0,3.7,0.1,3.8,3.9
	c0,5.5,0,11,0,16.5c0,3.3-0.1,3.4-3.3,3.4c-7.8,0.1-15.6,0-23.5,0c-1,0-2,0-3,0c-3.6,0.2-3.9,0.4-4,4.1c-0.2,4.1,1.9,6.2,6.2,6.2
	c4.7,0,9.3,0.1,14,0c1.9,0,2.6,0.7,2.6,2.6c-0.1,6.5-0.1,13,0,19.5c0,1.8-0.8,2.3-2.4,2.3c-5.3-0.1-10.6-0.1-16,0
	c-4.3,0-4.3,0.1-4.4,4c-0.1,4.2,1.9,6.3,6.1,6.3c8.2,0,16.3,0,24.5,0c3.1,0,3.2,0.1,3.2,3.5c0.1,5.6,0,11.3,0,17
	c0,3.2-0.1,3.3-3.3,3.3c-12.3,0-24.6,0-36.9,0c-11.5,0-23,0-34.4,0c-3.7,0-3.8-0.1-3.8-3.9C127.2,153.6,127.2,139.4,127.2,125.3
	L127.2,125.3z"/>
<path class="st0" d="M405.8,79.1c12.3,0,24.6,0,36.9,0c3.9,0,3.9,0.1,3.9,3.7c0,11.1,0,22.3,0,33.4c0,3.5-0.1,3.6-3.6,3.6
	c-4.3,0.1-8.6-0.1-13,0c-3.2,0.1-3.4,0.2-3.4,3.4c-0.1,7,0,14,0,20.9c0,8.1,0,16.3,0,24.4c0,2.1-0.6,2.9-2.8,2.9
	c-12-0.1-24,0-35.9-0.1c-2.8,0-2.8-0.1-2.8-3.3c0-13.6,0-27.3,0-40.9c0-1.2,0-2.3,0-3.5c-0.1-3.9-0.2-4-3.9-4c-4.5-0.1-9-0.1-13.5,0
	c-1.8,0-2.8-0.5-2.7-2.5c0.1-12,0.1-23.9,0-35.9c0-2.2,1.2-2.3,2.9-2.3c8.6,0,17.3,0,26,0C397.8,79.1,401.8,79.1,405.8,79.1
	L405.8,79.1z"/>
<path class="st0" d="M359.7,125.7c0,13.3,0,26.6,0,39.9c0,1.2-0.1,2.3,0,3.5c0.1,2-0.8,2.5-2.7,2.5c-5.8-0.1-11.6,0-17.5,0
	c-6.2,0-12.3,0-18.5,0c-3.2,0-3.2-0.1-3.3-3.4c0-1,0-2,0-3c0-26.6,0-53.2,0-79.8c0-0.5,0-1,0-1.5c0-5.2-0.1-4.7,5-4.7
	c9.5,0,19,0,28.5,0c2,0,4,0.1,6,0c2.1-0.1,2.5,0.9,2.5,2.7c-0.1,3.3,0,6.7,0,10C359.7,103.1,359.7,114.4,359.7,125.7L359.7,125.7z"
	/>
</svg>
