<?xml version="1.0" encoding="UTF-8"?>
<svg id="Capa_1" data-name="Capa 1" xmlns="http://www.w3.org/2000/svg" viewBox="0 0 755.72 290.66">
  <defs>
    <style>
      .cls-1 {
        stroke-width: 0px;
      }
    </style>
  </defs>
  <path class="cls-1" d="M755.72,149.83c-.34.72-.87,1.42-.98,2.18-1.31,8.84-5.11,16.42-11.43,22.74-8,8.01-16.01,16.01-24.01,24.01-26.24,26.23-52.53,52.42-78.7,78.73-5.79,5.82-12.37,10.06-20.36,11.89-14.64,3.36-27.66.04-38.89-9.96-2.48-2.21-4.75-4.67-7.1-7.02-32.14-32.12-64.28-64.25-96.42-96.37-5.89-5.89-10.11-12.74-11.84-20.95-3.02-14.3.01-27.14,10.09-37.84,8.33-8.84,17.14-17.23,25.7-25.85,25.11-25.25,50.26-50.47,75.28-75.81,7.7-7.8,16.35-13.53,27.51-14.76.42-.05.79-.54,1.19-.83,3,0,6,0,9,0,.55.33,1.07.88,1.64.95,9.72,1.12,17.59,5.9,24.32,12.61,33.74,33.61,67.41,67.29,101.07,100.98,5.72,5.73,10.15,12.29,12.16,20.28.51,2.03,1.16,4.03,1.75,6.04v8.99ZM504.89,168.69s0,.03,0,.05c-3.66,0-7.34-.21-10.99.06-3.19.23-4.14,2.78-2.17,5.29.82,1.04,1.84,1.92,2.78,2.86,30.62,30.6,61.24,61.2,91.87,91.8.82.82,1.61,1.69,2.49,2.45,6.69,5.83,14.49,8.92,23.34,8.27,8.25-.6,15.12-4.34,21.02-10.27,30.66-30.8,61.44-61.47,92.18-92.19.82-.82,1.71-1.6,2.43-2.51,1.83-2.35.92-4.53-2.08-4.88-1.48-.17-3.02.12-4.49-.09-5.73-.79-9.84,1.32-13.93,5.54-16.46,16.96-33.34,33.53-50.07,50.24-2.64,2.64-2.35,2.69-4.99.05-7.77-7.77-15.53-15.55-23.3-23.32-.82-.82-1.69-1.61-2.48-2.46-1.2-1.3-2.27-1.04-3.37.11-.92.96-1.91,1.86-2.85,2.8-7.57,7.5-15.14,15-22.7,22.5-2.45,2.43-2.16,3.04-4.97.23-17.54-17.54-35.1-35.07-52.63-52.62-2.74-2.75-2.74-2.84-.11-5.49,7.98-8.03,16-16.03,24.03-24.01,2.63-2.62,2.71-2.61,5.43.09,7.91,7.87,15.77,15.78,23.69,23.64,2.3,2.28,2.39,2.27,4.69.03,7.63-7.44,15.23-14.9,22.84-22.36.95-.93,1.83-1.98,2.91-2.72.5-.34,1.58-.35,2.1-.02.96.61,1.71,1.56,2.54,2.39,7.66,7.65,15.3,15.31,22.97,22.94,2.98,2.96,3.01,2.95,6.14-.12,14.02-13.76,28.12-27.45,42-41.34,3.09-3.09,6.46-4.45,10.66-4.4,4.33.05,8.66.05,12.99,0,2.08-.03,4.67.69,5.63-1.99.84-2.36-1.38-3.53-2.73-4.87-30.94-30.98-61.97-61.88-92.86-92.93-12.93-13-32.92-12.73-45.53-.01-30.71,30.97-61.65,61.72-92.5,92.56-.71.71-1.57,1.33-2.05,2.17-.54.94-1.29,2.4-.92,3.05.53.94,1.94,1.79,3.07,1.93,2.47.29,5-.07,7.48.16,3.76.34,6.49-.9,9.2-3.67,16.86-17.28,33.91-34.37,50.92-51.5,3.79-3.82,3.11-3.86,6.82-.16,7.19,7.17,14.37,14.36,21.56,21.53q4.53,4.53,8.98.09c7.55-7.52,15.09-15.05,22.67-22.54,2.25-2.22,2.32-2.2,4.65.08,2.86,2.8,5.66,5.64,8.49,8.47,14.96,14.95,29.92,29.89,44.86,44.85,2.53,2.53,2.53,2.63.08,5.06-8.14,8.11-16.31,16.18-24.48,24.26-2.13,2.1-1.89,2.2-4.23-.14-7.88-7.89-15.77-15.79-23.65-23.68-4.08-4.08-3.47-3.85-7.25-.12-.24.23-.47.47-.71.7-7.33,7.27-14.65,14.55-22,21.79-2.76,2.72-2.79,2.69-5.41.16-.6-.58-1.18-1.18-1.77-1.76-7.07-7.06-14.14-14.11-21.2-21.19-3.88-3.89-3.46-3.29-6.9.14-11.55,11.52-23.09,23.06-34.63,34.6-2.47,2.47-4.94,4.95-7.43,7.4-2.1,2.07-4.52,3.25-7.6,3.06-2.82-.17-5.66-.04-8.49-.04Z"/>
  <path class="cls-1" d="M0,78.91c12.15.06,24.3.25,36.44.11,3.45-.04,5.95.94,8.33,3.41,3.81,3.95,7.84,7.69,11.96,11.31,2.63,2.31,2.81,2.17,5.37-.09,4.75-4.17,9.5-8.34,14.16-12.61,1.44-1.32,2.89-1.99,4.88-1.98,11.49.07,22.97.01,34.46.05,3.05.01,3.11.1,3.12,3.5.03,10.15.01,20.29.01,30.44,0,18.3.01,36.6-.01,54.89,0,3.56-.07,3.63-3.49,3.64-11.65.03-23.31.03-34.96,0-3.17-.01-3.24-.1-3.26-3.42-.09-10.81-.12-21.62-.18-32.43,0-.83.11-1.68-.03-2.49-.19-1.06-.58-2.08-.88-3.12-.92.61-1.94,1.11-2.73,1.86-3.5,3.31-6.92,6.7-10.4,10.04q-3.41,3.28-6.66.07c-3.79-3.74-7.56-7.5-11.37-11.22-.33-.32-1.11-.74-1.22-.64-.4.39-.79.95-.85,1.49-.13,1.15-.06,2.32-.06,3.49,0,9.98,0,19.96,0,29.94q0,6.45-6.7,6.45c-10.32,0-20.64,0-30.96,0-1.66,0-3.32.13-4.98.19v-92.9Z"/>
  <path class="cls-1" d="M210.84,125.64c0-13.32,0-26.63,0-39.95,0-1.33-.04-2.67.06-3.99.11-1.51.91-2.47,2.52-2.54,1-.04,2-.06,3-.06,20.99,0,41.98-.03,62.97,0,12.9.02,23.42,7.41,26.7,19.89,2.17,8.25,1.19,16.54-4.57,23.57-.53.64-1.12,1.23-1.68,1.85-3.43,3.82-3.46,4.6-.61,9.1,4.73,7.48,8.64,15.35,10.68,24.01.95,4.03,1.59,8.13,2.43,12.19.26,1.27-.11,1.88-1.44,1.88-3,0-6,0-8.99,0-9.16,0-18.32-.08-27.48.05-2.47.04-3.67-.87-4.11-3.2-1.04-5.54-2.08-11.09-3.24-16.61-.99-4.73-3.47-8.62-7.28-11.58-1.41-1.1-3.24-2.6-4.93-1.35-1.08.8-1.71,2.82-1.76,4.32-.2,7.15-.1,14.31-.17,21.47-.08,8.08,1.05,6.83-6.81,6.89-9.99.07-19.99.02-29.98.02-5.69,0-5.3.34-5.3-5.52,0-13.48,0-26.97,0-40.45ZM253.62,106.97s-.04,0-.06,0c0,1.32,0,2.63,0,3.95,0,.33-.01.66.01.99.22,2.85,1.53,3.78,4.2,2.99,3.44-1.02,5.74-4.6,5.44-8.44-.29-3.65-2.89-6.45-6.48-7.08-1.81-.32-2.96.3-3.09,2.16-.13,1.8-.03,3.62-.03,5.43Z"/>
  <path class="cls-1" d="M127.17,125.32c0-14.14-.01-28.27,0-42.41,0-3.74.06-3.79,3.84-3.8,23.63-.02,47.27-.02,70.9,0,3.69,0,3.73.07,3.75,3.92.03,5.49.04,10.98,0,16.46-.03,3.3-.09,3.38-3.28,3.4-7.82.05-15.64.02-23.47.02-1,0-2-.03-3,0-3.64.15-3.9.43-4.04,4.08q-.24,6.21,6.2,6.21c4.66,0,9.32.07,13.98-.03,1.94-.04,2.62.67,2.6,2.6-.08,6.49-.07,12.97-.01,19.46.02,1.78-.78,2.28-2.41,2.27-5.33-.05-10.65-.05-15.98,0-4.27.03-4.27.07-4.38,4.03q-.17,6.29,6.13,6.3c8.16,0,16.31-.03,24.47.02,3.11.02,3.16.1,3.19,3.48.05,5.65.04,11.31,0,16.96-.03,3.2-.08,3.27-3.33,3.28-12.32.03-24.63.01-36.95.01-11.48,0-22.97.02-34.45,0-3.7,0-3.75-.06-3.75-3.87-.02-14.14,0-28.27,0-42.41Z"/>
  <path class="cls-1" d="M405.81,79.1c12.31,0,24.63-.02,36.94,0,3.87,0,3.93.06,3.94,3.72.03,11.14.03,22.28,0,33.42-.01,3.5-.09,3.55-3.63,3.59-4.33.05-8.65-.05-12.98.04-3.2.06-3.4.24-3.43,3.45-.07,6.98-.03,13.97-.03,20.95,0,8.15-.05,16.3.03,24.44.02,2.07-.56,2.94-2.79,2.92-11.98-.08-23.96-.02-35.94-.06-2.75,0-2.82-.11-2.83-3.29-.03-13.64-.01-27.27-.01-40.91,0-1.16.02-2.33,0-3.49-.1-3.87-.16-3.98-3.87-4.03-4.49-.07-8.99-.05-13.48,0-1.79.02-2.75-.48-2.74-2.53.06-11.97.06-23.94,0-35.92-.01-2.2,1.23-2.33,2.89-2.32,8.65.03,17.31.01,25.96,0,3.99,0,7.99,0,11.98,0Z"/>
  <path class="cls-1" d="M359.72,125.7c0,13.31,0,26.61,0,39.92,0,1.16-.08,2.33.01,3.49.15,2.01-.84,2.54-2.69,2.52-5.83-.07-11.65-.02-17.48-.02-6.16,0-12.32.04-18.48-.02-3.21-.03-3.22-.11-3.33-3.41-.03-1,0-2,0-2.99,0-26.61,0-53.23,0-79.84,0-.5,0-1,0-1.5-.01-5.2-.11-4.74,5.02-4.74,9.49-.01,18.98,0,28.46,0,2,0,4,.1,5.99-.02,2.07-.13,2.55.91,2.51,2.71-.07,3.33-.02,6.65-.01,9.98,0,11.31,0,22.62,0,33.93Z"/>
</svg>